<svg width="121" height="133" viewBox="0 0 121 133" fill="none" xmlns="http://www.w3.org/2000/svg">
    <path d="M10.5681 41.3535H39.7453C39.7453 27.6617 58.5841 25.7408 67.0845 26.7016C73.8849 27.4702 78.1887 33.2671 79.4906 36.0694H113.952C111.746 11.4729 85.617 2.28106 72.8281 0.759685C25.777 -5.19727 11.7168 25.3401 10.5681 41.3535Z"
          fill="#FF9473"/>
    <path d="M82.2476 38.5967C81.74 38.5967 81.3286 39.0081 81.3286 39.5156V100.167C81.3286 100.675 81.74 101.086 82.2476 101.086H113.952C114.459 101.086 114.871 100.675 114.871 100.167V39.5156C114.871 39.0081 114.459 38.5967 113.952 38.5967H82.2476Z"
          fill="#18A0FB" stroke="#18A0FB" stroke-width="1.83793" stroke-linecap="round" stroke-linejoin="round"/>
    <path d="M76.826 67.5439V47.7861C38.4595 47.7861 3.76569 53.9892 0.551714 78.112C-2.63772 102.051 7.90095 117.857 34.7833 121.763C56.623 124.936 71.7717 109.893 76.826 100.856V78.112C76.826 96.2616 40.9863 107.289 34.7833 90.518C28.5802 73.7469 43.2837 71.2198 51.0949 69.1521C57.3439 67.498 70.8527 67.3907 76.826 67.5439Z"
          fill="#FF9473"/>
    <path d="M99.1824 130.493C98.3811 131.642 96.6769 131.632 95.8885 130.474L80.3181 107.601C79.4114 106.269 80.3714 104.466 81.9826 104.475L113.379 104.651C114.99 104.66 115.93 106.473 115.008 107.795L99.1824 130.493Z"
          fill="#18A0FB"/>
</svg>
