<svg width="30" height="34" viewBox="0 0 30 34" fill="none" xmlns="http://www.w3.org/2000/svg">
<path d="M2.63623 10.3164H9.91503C9.91503 6.90075 14.6147 6.42154 16.7353 6.66122C18.4318 6.85298 19.5055 8.29911 19.8303 8.9982H28.4273C27.8771 2.86214 21.3586 0.569054 18.1682 0.189518C6.43038 -1.29656 2.9228 6.32158 2.63623 10.3164Z" fill="#FF9473"/>
<path d="M20.5181 9.62866C20.3915 9.62866 20.2888 9.7313 20.2888 9.85791V24.9887C20.2888 25.1153 20.3915 25.2179 20.5181 25.2179H28.4273C28.5539 25.2179 28.6566 25.1153 28.6566 24.9887V9.85791C28.6566 9.7313 28.5539 9.62866 28.4273 9.62866H20.5181Z" fill="#18A0FB" stroke="#18A0FB" stroke-width="0.458507" stroke-linecap="round" stroke-linejoin="round"/>
<path d="M19.1657 16.85V11.921C9.59446 11.921 0.939423 13.4685 0.137636 19.4864C-0.658029 25.4583 1.97104 29.4016 8.67735 30.3759C14.1257 31.1675 17.9048 27.4147 19.1657 25.1604V19.4864C19.1657 24.0142 10.2248 26.7652 8.67735 22.5813C7.12989 18.3974 10.7979 17.767 12.7466 17.2512C14.3055 16.8385 17.6756 16.8118 19.1657 16.85Z" fill="#FF9473"/>
<path d="M24.7429 32.5537C24.543 32.8404 24.1179 32.838 23.9212 32.5491L20.0369 26.8429C19.8107 26.5106 20.0502 26.0609 20.4521 26.0632L28.2845 26.107C28.6864 26.1093 28.9208 26.5616 28.6909 26.8913L24.7429 32.5537Z" fill="#18A0FB"/>
</svg>
