<svg width="21" height="19" viewBox="0 0 21 19" fill="none" xmlns="http://www.w3.org/2000/svg">
    <path d="M5.84905 17.6094H3.07146C2.58035 17.6094 2.10935 17.4357 1.76209 17.1266C1.41482 16.8174 1.21973 16.3981 1.21973 15.9609V10.1914C1.21973 9.75421 1.41482 9.33493 1.76209 9.02579C2.10935 8.71664 2.58035 8.54297 3.07146 8.54297H5.84905M12.3301 6.89453V3.59766C12.3301 2.94187 12.0375 2.31294 11.5166 1.84922C10.9957 1.38551 10.2892 1.125 9.55251 1.125L5.84905 8.54297V17.6094H16.2928C16.7394 17.6139 17.1727 17.4745 17.513 17.2171C17.8533 16.9596 18.0776 16.6013 18.1445 16.2082L19.4222 8.79023C19.4625 8.55398 19.4446 8.31275 19.3698 8.08326C19.2949 7.85377 19.1649 7.64152 18.9888 7.46119C18.8127 7.28087 18.5946 7.1368 18.3497 7.03895C18.1048 6.9411 17.8389 6.89183 17.5705 6.89453H12.3301Z"
          stroke="#C9C8D3" stroke-width="1.64844" stroke-linecap="round" stroke-linejoin="round"/>
</svg>
