<svg width="20" height="23" viewBox="0 0 20 23" fill="none" xmlns="http://www.w3.org/2000/svg">
    <path d="M9.20124 7.54243L9.20132 7.54243C9.63474 7.55339 10.0591 7.56185 10.4728 7.5701C12.335 7.60722 13.983 7.64007 15.281 7.87779C16.8734 8.16942 18.1078 8.80108 18.5461 10.2712C18.6696 10.562 18.7446 10.885 18.7446 11.2311C18.7446 11.8147 18.5399 12.3465 18.2047 12.7578C18.4468 13.1359 18.5878 13.5904 18.5878 14.0773C18.5878 14.7961 18.2792 15.4394 17.7923 15.8727C17.9435 16.1877 18.0315 16.5435 18.0315 16.9229C18.0315 17.6405 17.7238 18.2829 17.2385 18.7163C17.3904 19.0318 17.4789 19.3882 17.4789 19.7691C17.4789 21.0436 16.5043 22.1317 15.2439 22.1317H5.48773C4.96242 22.1317 4.56257 22.0623 4.23637 21.941C3.90676 21.8184 3.67729 21.6519 3.48958 21.4968C3.44004 21.4559 3.39424 21.4168 3.35071 21.3797C3.07715 21.1462 2.89368 20.9897 2.43948 20.935C1.61959 20.8363 1.10608 20.4656 0.833637 19.905C0.585921 19.3953 0.567204 18.779 0.567204 18.2565V12.0519C0.567204 11.301 0.745727 10.7667 1.09972 10.3792C1.4365 10.0106 1.88799 9.83044 2.27342 9.68331C2.30772 9.67022 2.34176 9.6573 2.37554 9.64449C2.74504 9.50428 3.08367 9.3758 3.40349 9.15189C3.73847 8.91736 4.06275 8.5683 4.3187 7.96378C5.33259 5.56912 5.31378 3.88294 5.30117 2.75191C5.30085 2.72301 5.30053 2.69446 5.30023 2.66628C5.29725 2.38323 5.29579 2.11328 5.31768 1.87762C5.33947 1.64299 5.38738 1.39923 5.51074 1.18459C5.78973 0.699167 6.31778 0.567204 6.96003 0.567204C7.93967 0.567204 8.64198 1.30573 9.05139 2.10304C9.46773 2.91386 9.66181 3.92473 9.55758 4.7485L9.20124 7.54243ZM9.20124 7.54243C9.19295 7.54222 9.18567 7.54184 9.17931 7.54136M9.20124 7.54243L9.17931 7.54136M9.17931 7.54136C9.17694 7.5278 9.17457 7.50993 9.17288 7.48694C9.16795 7.4201 9.16991 7.32935 9.18127 7.20712C9.20353 6.96746 9.25589 6.66237 9.32422 6.26423L9.33143 6.22222C9.40206 5.81059 9.48545 5.31873 9.55757 4.74853L9.17931 7.54136Z"
          fill="#FFDB5E" stroke="white" stroke-width="0.865591"/>
    <path d="M11.6142 13.663H16.3724C17.0194 13.663 17.6266 13.2867 17.9573 12.6814C18.0934 12.4319 18.0176 12.1091 17.7876 11.9606C17.5581 11.8122 17.2611 11.8957 17.1245 12.1452C16.968 12.4331 16.6788 12.611 16.3718 12.611H11.4998C11.017 12.611 10.6243 12.1843 10.6243 11.6595C10.6243 11.1347 11.017 10.7079 11.4998 10.7079H14.7554C15.0225 10.7079 15.2393 10.4723 15.2393 10.182C15.2393 9.89164 15.0225 9.65601 14.7554 9.65601H11.4992C10.4828 9.65601 9.65601 10.5547 9.65601 11.6595C9.65601 12.2756 9.91869 12.8208 10.3224 13.1887C9.98229 13.5524 9.77048 14.0573 9.77048 14.6151C9.77048 15.2331 10.0348 15.7801 10.4407 16.1473C10.1028 16.5104 9.89325 17.0135 9.89325 17.5702C9.89325 18.2434 10.2024 18.8373 10.6725 19.201C10.3827 19.555 10.2013 20.0161 10.2013 20.5258C10.2013 21.6306 11.028 22.5293 12.0445 22.5293H15.0772C15.7243 22.5293 16.332 22.1536 16.6627 21.5483C16.7993 21.2988 16.7236 20.976 16.4941 20.8275C16.264 20.6803 15.967 20.7614 15.831 21.0109C15.6734 21.2988 15.3842 21.4773 15.0772 21.4773H12.0445C11.5617 21.4773 11.1691 21.0506 11.1691 20.5258C11.1691 20.001 11.5617 19.5742 12.0445 19.5742H15.6424C16.2894 19.5742 16.8978 19.1979 17.2279 18.5926C17.3645 18.3426 17.2887 18.0198 17.0592 17.8719C16.8275 17.721 16.5317 17.8058 16.3962 18.0552C16.2364 18.348 15.9543 18.5223 15.6424 18.5223H11.7365C11.2537 18.5223 10.861 18.0949 10.861 17.5702C10.861 17.0454 11.2537 16.6186 11.7365 16.6186H16.2109C16.8579 16.6186 17.4657 16.2429 17.7964 15.6376C17.933 15.3881 17.8572 15.0654 17.6277 14.9169C17.3971 14.769 17.1007 14.8508 16.9647 15.1002C16.8049 15.3924 16.5228 15.5667 16.2109 15.5667H11.6142C11.1315 15.5667 10.7388 15.1399 10.7388 14.6151C10.7388 14.0904 11.1309 13.663 11.6142 13.663V13.663Z"
          fill="#EE9547"/>
</svg>