<svg width="16" height="16" viewBox="0 0 16 16" fill="none" xmlns="http://www.w3.org/2000/svg">
    <path fill-rule="evenodd" clip-rule="evenodd"
          d="M8.00001 0.666504C3.95001 0.666504 0.666672 3.94984 0.666672 7.99984C0.666672 12.0498 3.95001 15.3332 8.00001 15.3332C12.05 15.3332 15.3333 12.0498 15.3333 7.99984C15.3333 3.94984 12.05 0.666504 8.00001 0.666504ZM8.66667 4.6665C8.66667 4.48969 8.59643 4.32012 8.47141 4.1951C8.34639 4.07008 8.17682 3.99984 8.00001 3.99984C7.82319 3.99984 7.65363 4.07008 7.5286 4.1951C7.40358 4.32012 7.33334 4.48969 7.33334 4.6665V8.6665C7.33334 8.84332 7.40358 9.01288 7.5286 9.13791C7.65363 9.26293 7.82319 9.33317 8.00001 9.33317C8.17682 9.33317 8.34639 9.26293 8.47141 9.13791C8.59643 9.01288 8.66667 8.84332 8.66667 8.6665V4.6665ZM8.66667 10.9998C8.66667 10.823 8.59643 10.6535 8.47141 10.5284C8.34639 10.4034 8.17682 10.3332 8.00001 10.3332C7.82319 10.3332 7.65363 10.4034 7.5286 10.5284C7.40358 10.6535 7.33334 10.823 7.33334 10.9998V11.3332C7.33334 11.51 7.40358 11.6796 7.5286 11.8046C7.65363 11.9296 7.82319 11.9998 8.00001 11.9998C8.17682 11.9998 8.34639 11.9296 8.47141 11.8046C8.59643 11.6796 8.66667 11.51 8.66667 11.3332V10.9998Z"
          fill="#ED6E64"/>
</svg>
