<svg width="400" height="400" viewBox="0 0 400 400" fill="none" xmlns="http://www.w3.org/2000/svg">
    <g clip-path="url(#clip0_1064_29582)">
        <path d="M17.5586 151.03L40.6786 137.68V111L17.5586 124.34V151.03Z" fill="#123E7B"/>
        <path d="M63.798 151.03V124.34L40.678 111L39.998 137.29L63.798 151.03Z" fill="#C9C8D3"/>
        <path d="M40.6786 111L17.5586 124.34L40.6786 137.68L63.7986 124.34L40.6786 111ZM24.3286 124.34L40.6786 114.91L56.9986 124.34L40.6786 133.75L24.3286 124.34Z"
              fill="#0B2B58" fill-opacity="0.5"/>
        <path d="M40.6789 174.59V137.68L17.5589 124.34L16.8789 160.85L40.6789 174.59Z" fill="#BDBCDB"/>
        <path d="M40.6797 174.2L63.7997 160.85V124.34L40.6797 137.68V174.2Z" fill="#C9C8D3"/>
        <path d="M55.6995 135.12L50.0195 138.4L61.3795 144.95L67.0095 141.65L55.6995 135.12Z" fill="#0B2B58"
              fill-opacity="0.5"/>
        <path d="M55.6995 148.22L50.0195 151.49L61.3795 158.05L67.0095 154.75L55.6995 148.22Z" fill="#0B2B58"
              fill-opacity="0.5"/>
        <path d="M61.3789 164.61L67.0489 161.34L67.0089 141.65L61.3789 144.95V164.61Z" fill="#C9C8D3"/>
        <path d="M50.0195 144.95V138.4L61.3795 144.95V164.61L50.0195 158.06V151.51L55.6995 154.78V148.23L50.0195 144.95Z"
              fill="#BDBCDB"/>
        <path d="M133.92 162.04L142.38 156.85L362.41 283.81L353.73 289.13L133.92 162.04Z" fill="#BDBCDB"/>
        <path d="M143.591 1V157.66L135.141 162.3V6.19L143.591 1Z" fill="#123E7B"/>
        <path d="M133.92 6.2002V162.3L353.73 289.13V133.28L133.92 6.2002ZM347.75 282.14L137.43 160.89V18.2202L347.75 139.74V282.14Z"
              fill="#BDBCDB"/>
        <path d="M362.41 284.06L362.3 284.31L353.73 289.13V133.28L362.41 127.96V284.06Z" fill="#C9C8D3"/>
        <path d="M133.92 6.19L142.38 1L362.41 127.96L353.73 133.28L133.92 6.19Z" fill="#0B2B58" fill-opacity="0.5"/>
        <path d="M90.6494 175L6.10938 224.38L225.919 350.92L310.459 301.51L90.6494 175Z" fill="#0B2B58"
              fill-opacity="0.5"/>
        <path d="M6.10938 233.6V224.38L225.919 350.92V360.43L6.10938 233.6Z" fill="#BDBCDB"/>
        <path d="M310.46 311.63V301.51L225.92 350.92V360.43L310.46 311.63Z" fill="#C9C8D3"/>
        <path d="M62.5091 228.5L49.5391 235.99L192.189 318.29L205.159 310.81L62.5091 228.5Z" fill="#0B2B58"
              fill-opacity="0.5"/>
        <path d="M49.5391 242.57V235.99L192.189 318.29L205.159 310.81V317.39L192.109 324.82L49.5391 242.57Z"
              fill="#BDBCDB"/>
        <path d="M325.67 314L258.51 353.22L326.74 392.48L393.89 353.22L325.67 314Z" fill="#0B2B58" fill-opacity="0.5"/>
        <path d="M258.51 360.54V353.22L326.74 392.48V400.03L258.51 360.54Z" fill="#BDBCDB"/>
        <path d="M393.89 361.26V353.22L326.74 392.48V400.03L393.89 361.26Z" fill="#C9C8D3"/>
        <path d="M106 35.2803V159.72L325.81 286.55V162.12L106 35.2803Z" fill="#0B2B58" fill-opacity="0.5"
              stroke="#F6F5F8" stroke-miterlimit="10"/>
        <path d="M325.81 162.11L106 35.2803" stroke="#F6F5F8" stroke-miterlimit="10"/>
        <path d="M231.141 107.15V231.81L325.811 286.66V162.01L231.141 107.15Z" stroke="#F6F5F8" stroke-miterlimit="10"/>
        <path d="M231.141 181.85V231.81L325.811 286.66V236.71L231.141 181.85Z" stroke="#F6F5F8" stroke-miterlimit="10"/>
        <path d="M106 23.1401V35.2801L325.81 162.12V149.97L106 23.1401Z" fill="#BDBCDB" stroke="#F6F5F8"
              stroke-miterlimit="10"/>
        <path d="M118.43 104.05V92.4702L124.43 95.9502V98.2702L126.43 99.4302V101.75L124.43 100.59V102.91L126.43 104.07V106.38L124.43 105.22V107.54L118.43 104.05ZM124.43 105.22V102.91L120.43 100.59V102.9L124.43 105.22ZM120.43 98.2202L124.43 100.54V98.2702L120.43 95.9502V98.2202Z"
              fill="#F6F5F8"/>
        <path d="M128.52 109.87V98.27L134.52 101.75V104.07L130.52 101.75V104.07L134.52 106.39V108.71L130.52 106.39V108.71L134.52 111.03V113.35L128.52 109.87Z"
              fill="#F6F5F8"/>
        <path d="M136.549 114.51V102.91L142.549 106.39V108.71L138.549 106.39V108.71L142.549 111.03V113.35L138.609 111V113.32L142.609 115.64V118L136.549 114.51Z"
              fill="#F6F5F8"/>
        <path d="M144.609 119.16V107.56L150.609 111.04V113.36L152.609 114.52V116.84L150.609 115.68V118L146.609 115.68V120.32L144.609 119.16ZM150.669 115.69V113.37L146.609 111V113.32L150.669 115.69Z"
              fill="#F6F5F8"/>
        <path d="M160.699 128.44V116.85L166.699 120.33V122.65L168.699 123.81V126.13L166.699 124.97V127.29L168.699 128.45V130.76L166.699 129.6V131.92L160.699 128.44ZM166.699 129.6V127.3L162.699 124.98V127.29L166.699 129.6ZM162.699 122.65L166.699 124.97V122.65L162.699 120.33V122.65Z"
              fill="#F6F5F8"/>
        <path d="M172.799 133.1L170.799 131.94V124.94L172.799 126.1V123.78L176.799 126.1V128.42L178.799 129.58V136.58L176.799 135.42V137.74L172.799 135.42V133.1ZM172.799 133.1L176.799 135.42V128.42L172.799 126.1V133.1Z"
              fill="#F6F5F8"/>
        <path d="M182.869 138.91L180.869 137.75V130.75L182.869 131.91V129.59L186.869 131.91V134.23L188.869 135.39V142.39L186.869 141.23V143.55L182.869 141.23V138.91ZM182.869 138.91L186.869 141.23V134.23L182.869 131.91V138.91Z"
              fill="#F6F5F8"/>
        <path d="M190.9 145.87V134.27L196.9 137.75V140.07L198.9 141.23V143.55L196.9 142.39V144.71L192.9 142.39V147.03L190.9 145.87ZM196.96 142.4V140.08L192.96 137.76V140.08L196.96 142.4Z"
              fill="#F6F5F8"/>
        <path d="M203 150.52V152.84L201 151.68V149.36L203 150.52ZM203 141.24V148.24L201 147.08V140.08L203 141.24Z"
              fill="#F6F5F8"/>
    </g>
    <defs>
        <clipPath id="clip0_1064_29582">
            <rect width="400" height="400" fill="white"/>
        </clipPath>
    </defs>
</svg>
