<svg width="104" height="135" viewBox="0 0 104 135" fill="none" xmlns="http://www.w3.org/2000/svg">
    <path d="M28.2678 36.8555H52.0562V134.078H38.1796H28.2678L0.514648 105.721V65.2119L28.2678 36.8555Z"
          fill="#C9C8D3"/>
    <path d="M28.4018 36.8555H0.514648V65.2028L28.4018 36.8555Z" fill="#8A8894"/>
    <path d="M0.514647 105.704L0.514648 134.133L28.2978 134.047L0.514647 105.704Z" fill="#8A8894"/>
    <path d="M75.7498 36.8555H51.9614V134.078H65.8379H75.7498L103.503 105.721V65.2119L75.7498 36.8555Z" fill="#C9C8D3"/>
    <path d="M46.7453 65.0762H52.0566V86.7832H48.9584H46.7453L40.5488 80.452V71.4074L46.7453 65.0762Z" fill="#69C3FF"/>
    <path d="M46.7412 105.574V86.7793H52.0567V108.63H49.4581L46.7412 105.574Z" fill="#69C3FF"/>
    <path d="M57.375 105.574V86.7793H52.0595V108.63H54.6582L57.375 105.574Z" fill="#18A0FB"/>
    <path d="M57.367 65.0752H52.0557V86.7822H55.1539H57.367L63.5635 80.451V71.4064L57.367 65.0752Z" fill="#18A0FB"/>
    <path d="M75.7745 36.8555H103.599V65.2028L75.7745 36.8555Z" fill="#0B2B58" fill-opacity="0.5"/>
    <path d="M103.599 105.704L103.599 134.133L75.8155 134.047L103.599 105.704Z" fill="#0B2B58" fill-opacity="0.5"/>
    <path d="M22.4785 36.856V22.8632L37.7108 7.2998H52.1704" stroke="#0B2B58" stroke-opacity="0.5"
          stroke-width="12.781"/>
    <path d="M81.7695 36.856V22.8632L66.1883 7.2998H52.1102" stroke="#C9C8D3" stroke-width="12.781"/>
    <path d="M29.0137 25.6258L15.9434 36.8721L15.9434 25.6258L29.0137 25.6258Z" fill="#8A8894"/>
    <path d="M52.1711 13.9756L41.1641 0.62123L52.1711 0.62123L52.1711 13.9756Z" fill="#8A8894"/>
    <path d="M52.1707 13.9756L63.1777 0.62123L52.1707 0.62123L52.1707 13.9756Z" fill="#0B2B58" fill-opacity="0.5"/>
    <path d="M88.3746 36.8574L75.2139 25.7362L88.3746 25.7362L88.3746 36.8574Z" fill="#0B2B58" fill-opacity="0.5"/>
</svg>
