<svg width="575" height="98" viewBox="0 0 575 98" fill="none" xmlns="http://www.w3.org/2000/svg">
    <path d="M110.492 68H116.064L117.98 61.8477H126.945L128.861 68H134.434L125.592 42.6348H119.352L110.492 68ZM122.41 47.5566H122.516L125.715 57.875H119.211L122.41 47.5566ZM144.699 74.5391C150.359 74.5391 153.893 71.6738 153.893 67.4727V49.1562H148.76V52.373H148.654C147.635 50.1758 145.578 48.7695 142.924 48.7695C138.16 48.7695 135.207 52.3379 135.207 58.3496V58.3672C135.207 64.2207 138.125 67.7363 142.836 67.7363C145.561 67.7363 147.67 66.4883 148.654 64.5195H148.76V67.4023C148.76 69.5117 147.354 70.8828 144.699 70.8828C142.555 70.8828 141.184 70.0742 140.779 69.1426L140.727 69.0195H135.734L135.752 69.1777C136.244 72.2012 139.514 74.5391 144.699 74.5391ZM144.611 63.9746C142.045 63.9746 140.428 61.8828 140.428 58.4902V58.4727C140.428 55.0977 142.062 53.0234 144.611 53.0234C147.107 53.0234 148.777 55.1152 148.777 58.4727V58.4902C148.777 61.8652 147.125 63.9746 144.611 63.9746ZM166.074 74.5391C171.734 74.5391 175.268 71.6738 175.268 67.4727V49.1562H170.135V52.373H170.029C169.01 50.1758 166.953 48.7695 164.299 48.7695C159.535 48.7695 156.582 52.3379 156.582 58.3496V58.3672C156.582 64.2207 159.5 67.7363 164.211 67.7363C166.936 67.7363 169.045 66.4883 170.029 64.5195H170.135V67.4023C170.135 69.5117 168.729 70.8828 166.074 70.8828C163.93 70.8828 162.559 70.0742 162.154 69.1426L162.102 69.0195H157.109L157.127 69.1777C157.619 72.2012 160.889 74.5391 166.074 74.5391ZM165.986 63.9746C163.42 63.9746 161.803 61.8828 161.803 58.4902V58.4727C161.803 55.0977 163.438 53.0234 165.986 53.0234C168.482 53.0234 170.152 55.1152 170.152 58.4727V58.4902C170.152 61.8652 168.5 63.9746 165.986 63.9746ZM181.314 46.7305C182.861 46.7305 184.057 45.5176 184.057 44.0586C184.057 42.5996 182.861 41.3867 181.314 41.3867C179.768 41.3867 178.572 42.5996 178.572 44.0586C178.572 45.5176 179.768 46.7305 181.314 46.7305ZM178.748 68H183.881V49.1562H178.748V68ZM195.904 68.3867C201.283 68.3867 203.885 65.2051 204.465 62.4277L204.518 62.2344H199.807L199.771 62.3398C199.402 63.3945 198.119 64.5547 196.01 64.5547C193.391 64.5547 191.756 62.7969 191.703 59.791H204.676V58.209C204.676 52.5137 201.213 48.7695 195.693 48.7695C190.174 48.7695 186.641 52.6016 186.641 58.5957V58.6133C186.641 64.6426 190.139 68.3867 195.904 68.3867ZM195.781 52.6016C197.908 52.6016 199.438 53.9551 199.754 56.5566H191.756C192.09 54.0078 193.672 52.6016 195.781 52.6016ZM214.906 68H220.215V58.8066H224.469L229.197 68H235.209L229.865 58.0156C232.678 56.9082 234.453 54.1309 234.453 50.791V50.7559C234.453 45.6582 231.078 42.6348 225.383 42.6348H214.906V68ZM220.215 54.7812V46.7832H224.732C227.352 46.7832 229.021 48.3301 229.021 50.7559V50.791C229.021 53.2871 227.439 54.7812 224.803 54.7812H220.215ZM245.932 68.3867C251.311 68.3867 253.912 65.2051 254.492 62.4277L254.545 62.2344H249.834L249.799 62.3398C249.43 63.3945 248.146 64.5547 246.037 64.5547C243.418 64.5547 241.783 62.7969 241.73 59.791H254.703V58.209C254.703 52.5137 251.24 48.7695 245.721 48.7695C240.201 48.7695 236.668 52.6016 236.668 58.5957V58.6133C236.668 64.6426 240.166 68.3867 245.932 68.3867ZM245.809 52.6016C247.936 52.6016 249.465 53.9551 249.781 56.5566H241.783C242.117 54.0078 243.699 52.6016 245.809 52.6016ZM261.629 68H267.412L273.881 49.1562H268.52L264.635 63.4648H264.529L260.592 49.1562H255.107L261.629 68ZM278.346 46.7305C279.893 46.7305 281.088 45.5176 281.088 44.0586C281.088 42.5996 279.893 41.3867 278.346 41.3867C276.799 41.3867 275.604 42.5996 275.604 44.0586C275.604 45.5176 276.799 46.7305 278.346 46.7305ZM275.779 68H280.912V49.1562H275.779V68ZM292.936 68.3867C298.314 68.3867 300.916 65.2051 301.496 62.4277L301.549 62.2344H296.838L296.803 62.3398C296.434 63.3945 295.15 64.5547 293.041 64.5547C290.422 64.5547 288.787 62.7969 288.734 59.791H301.707V58.209C301.707 52.5137 298.244 48.7695 292.725 48.7695C287.205 48.7695 283.672 52.6016 283.672 58.5957V58.6133C283.672 64.6426 287.17 68.3867 292.936 68.3867ZM292.812 52.6016C294.939 52.6016 296.469 53.9551 296.785 56.5566H288.787C289.121 54.0078 290.703 52.6016 292.812 52.6016ZM307.93 68H313.326L316.719 54.6758H316.824L320.234 68H325.701L330.693 49.1562H325.631L322.766 63.1309H322.66L319.303 49.1562H314.381L311.041 63.1309H310.936L308.088 49.1562H302.92L307.93 68Z"
          fill="#41464E"/>
    <path d="M7.7334 30.2615H29.0846C29.0846 20.2422 42.8703 18.8365 49.0908 19.5396C54.0671 20.1021 57.2165 24.344 58.1692 26.3947H83.3871C81.7732 8.39561 62.6524 1.66922 53.2937 0.555919C18.8629 -3.80324 8.574 18.5433 7.7334 30.2615Z"
          fill="#FF9473"/>
    <path d="M60.1865 27.997C59.679 27.997 59.2676 28.4085 59.2676 28.916V73.2995C59.2676 73.8071 59.679 74.2185 60.1865 74.2185H83.387C83.8945 74.2185 84.306 73.8071 84.306 73.2995V28.916C84.306 28.4085 83.8945 27.997 83.387 27.997H60.1865Z"
          fill="#18A0FB" stroke="#18A0FB" stroke-width="1.83793" stroke-linecap="round" stroke-linejoin="round"/>
    <path d="M56.2194 49.4271V34.9689C28.1437 34.9689 2.75564 39.5081 0.403731 57.1606C-1.93022 74.6784 5.78173 86.2453 25.4536 89.1033C41.4354 91.4252 52.5208 80.4171 56.2194 73.8044V57.1606C56.2194 70.4421 29.9928 78.5118 25.4536 66.2391C20.9143 53.9664 31.674 52.117 37.39 50.604C41.9629 49.3935 51.8483 49.3151 56.2194 49.4271Z"
          fill="#FF9473"/>
    <path d="M73.025 94.8526C72.2237 96.0019 70.5196 95.9923 69.7312 94.8341L59.3498 79.5837C58.4431 78.2517 59.4031 76.4492 61.0143 76.4582L81.9471 76.5755C83.5584 76.5845 84.4981 78.3976 83.5765 79.7193L73.025 94.8526Z"
          fill="#18A0FB"/>
</svg>
