<svg width="52" height="51" viewBox="0 0 52 51" fill="none" xmlns="http://www.w3.org/2000/svg">
<g filter="url(#filter0_d_1_3)">
<path d="M26.0625 47C38.3163 47 48.25 37.0663 48.25 24.8125C48.25 12.5587 38.3163 2.625 26.0625 2.625C13.8087 2.625 3.875 12.5587 3.875 24.8125C3.875 37.0663 13.8087 47 26.0625 47Z" stroke="#18A0FB" stroke-width="2"/>
<path d="M37.896 35.5556V32.7528C37.896 31.2663 37.3053 29.8406 36.2541 28.7894C35.203 27.7382 33.7772 27.1477 32.2907 27.1477H21.0801C19.5935 27.1477 18.1677 27.7382 17.1166 28.7894C16.0654 29.8406 15.4749 31.2663 15.4749 32.7528V35.5556" stroke="#18A0FB" stroke-width="2" stroke-linecap="round" stroke-linejoin="round"/>
<path d="M26.6855 21.5424C29.7813 21.5424 32.2908 19.0328 32.2908 15.9371C32.2908 12.8415 29.7813 10.3319 26.6855 10.3319C23.5898 10.3319 21.0802 12.8415 21.0802 15.9371C21.0802 19.0328 23.5898 21.5424 26.6855 21.5424Z" stroke="#18A0FB" stroke-width="2" stroke-linecap="round" stroke-linejoin="round"/>
</g>
<defs>
<filter id="filter0_d_1_3" x="0.875" y="0.625" width="50.375" height="50.375" filterUnits="userSpaceOnUse" color-interpolation-filters="sRGB">
<feFlood flood-opacity="0" result="BackgroundImageFix"/>
<feColorMatrix in="SourceAlpha" type="matrix" values="0 0 0 0 0 0 0 0 0 0 0 0 0 0 0 0 0 0 127 0" result="hardAlpha"/>
<feOffset dy="1"/>
<feGaussianBlur stdDeviation="1"/>
<feComposite in2="hardAlpha" operator="out"/>
<feColorMatrix type="matrix" values="0 0 0 0 0 0 0 0 0 0 0 0 0 0 0 0 0 0 0.05 0"/>
<feBlend mode="normal" in2="BackgroundImageFix" result="effect1_dropShadow_1_3"/>
<feBlend mode="normal" in="SourceGraphic" in2="effect1_dropShadow_1_3" result="shape"/>
</filter>
</defs>
</svg>
