<svg width="27" height="26" viewBox="0 0 27 26" fill="none" xmlns="http://www.w3.org/2000/svg">
    <path d="M15.8073 2.32812H7.2656C6.69926 2.32813 6.15611 2.55311 5.75564 2.95357C5.35517 3.35404 5.13019 3.89719 5.13019 4.46354V21.5469C5.13019 22.1132 5.35517 22.6564 5.75564 23.0568C6.15611 23.4573 6.69926 23.6823 7.2656 23.6823H20.0781C20.6445 23.6823 21.1876 23.4573 21.5881 23.0568C21.9885 22.6564 22.2135 22.1132 22.2135 21.5469V8.73437L15.8073 2.32812Z"
          stroke="#8A8894" stroke-width="2.13542" stroke-linecap="round" stroke-linejoin="round"/>
    <path d="M15.8073 2.32812V8.73438H22.2136" stroke-width="2.13542" stroke-linecap="round"
          stroke="#8A8894" stroke-linejoin="round"/>
    <path d="M17.9427 14.073H9.40106" stroke-width="2.13542" stroke-linecap="round"
          stroke="#8A8894" stroke-linejoin="round"/>
    <path d="M17.9427 18.3438H9.40106" stroke-width="2.13542" stroke-linecap="round"
          stroke="#8A8894" stroke-linejoin="round"/>
    <path d="M11.5365 9.802H10.4688H9.40106" stroke-width="2.13542" stroke-linecap="round"
          stroke="#8A8894" stroke-linejoin="round"/>
</svg>
